<svg xmlns="http://www.w3.org/2000/svg" xmlns:xlink="http://www.w3.org/1999/xlink"><symbol id="icon-android" viewBox="0 0 505.145 505.145">
		<g fill="#fff">
			<path d="m68.541 164.72h-1.294c-16.588 0-30.113 13.568-30.113 30.113v131.11c0 16.61 13.525 30.134 30.113 30.134h1.316c16.588 0 30.113-13.568 30.113-30.134v-131.11c-0.022-16.544-13.568-30.112-30.135-30.112z"/>
			<path d="m113.08 376.54c0 15.229 12.446 27.632 27.675 27.632h29.574v70.817c0 16.631 13.568 30.156 30.113 30.156h1.294c16.61 0 30.156-13.546 30.156-30.156v-70.817h41.33v70.817c0 16.631 13.611 30.156 30.156 30.156h1.273c16.609 0 30.134-13.546 30.134-30.156v-70.817h29.595c15.207 0 27.654-12.403 27.654-27.632v-207.02h-278.95v207.02z"/>
			<path d="m322.04 43.983l23.491-36.26c1.51-2.287 0.841-5.414-1.467-6.903-2.286-1.51-5.414-0.884-6.903 1.467l-24.353 37.512c-18.27-7.485-38.676-11.691-60.226-11.691-21.571 0-41.934 4.206-60.247 11.691l-24.31-37.512c-1.488-2.351-4.638-2.977-6.946-1.467-2.308 1.488-2.977 4.616-1.467 6.903l23.512 36.26c-42.387 20.773-70.968 59.924-70.968 104.83 0 2.761 0.173 5.479 0.41 8.175h280.05c0.237-2.696 0.388-5.414 0.388-8.175 1e-3 -44.91-28.602-84.061-70.967-104.83zm-134.39 64.928c-7.442 0-13.482-5.997-13.482-13.46s6.04-13.439 13.482-13.439c7.485 0 13.482 5.975 13.482 13.439s-6.04 13.46-13.482 13.46zm129.84 0c-7.442 0-13.482-5.997-13.482-13.46s6.04-13.439 13.482-13.439c7.463 0 13.46 5.975 13.46 13.439 0 7.463-5.997 13.46-13.46 13.46z"/>
			<path d="m437.88 164.72h-1.251c-16.588 0-30.156 13.568-30.156 30.113v131.11c0 16.61 13.59 30.134 30.156 30.134h1.273c16.609 0 30.113-13.568 30.113-30.134v-131.11c0-16.544-13.547-30.112-30.135-30.112z"/>
		</g>
</symbol><symbol id="icon-apple" viewBox="0 0 305 305">
	<path fill="#fff" d="m40.738 112.12c-25.785 44.745-9.393 112.65 19.121 153.82 14.233 20.584 28.643 39.061 48.38 39.061 0.372 0 0.745-7e-3 1.127-0.022 9.273-0.37 15.974-3.225 22.453-5.984 7.274-3.1 14.797-6.305 26.597-6.305 11.226 0 18.39 3.101 25.318 6.099 6.828 2.954 13.861 6.01 24.253 5.815 22.232-0.414 35.882-20.352 47.925-37.941 12.567-18.365 18.871-36.196 20.998-43.01l0.086-0.271c0.405-1.211-0.167-2.533-1.328-3.066-0.032-0.015-0.15-0.064-0.183-0.078-3.915-1.601-38.257-16.836-38.618-58.36-0.335-33.736 25.763-51.601 30.997-54.839l0.244-0.152c0.567-0.365 0.962-0.944 1.096-1.606 0.134-0.661-6e-3 -1.349-0.386-1.905-18.014-26.362-45.624-30.335-56.74-30.813-1.613-0.161-3.278-0.242-4.95-0.242-13.056 0-25.563 4.931-35.611 8.893-6.936 2.735-12.927 5.097-17.059 5.097-4.643 0-10.668-2.391-17.645-5.159-9.33-3.703-19.905-7.899-31.1-7.899-0.267 0-0.53 3e-3 -0.789 8e-3 -26.03 0.383-50.626 15.275-64.186 38.859z"/>
	<path fill="#fff" d="m212.1 2e-3c-15.763 0.642-34.672 10.345-45.974 23.583-9.605 11.127-18.988 29.679-16.516 48.379 0.155 1.17 1.107 2.073 2.284 2.164 1.064 0.083 2.15 0.125 3.232 0.126 15.413 0 32.04-8.527 43.395-22.257 11.951-14.498 17.994-33.104 16.166-49.77-0.144-1.306-1.293-2.276-2.587-2.225z"/>
</symbol><symbol id="icon-facebook" viewBox="0 0 470.513 470.513">
	<path fill="#fff" d="m271.52 154.17v-40.541c0-6.086 0.28-10.8 0.849-14.13 0.567-3.335 1.857-6.615 3.859-9.853 1.999-3.236 5.236-5.47 9.706-6.708 4.476-1.24 10.424-1.858 17.85-1.858h40.539v-81.08h-64.809c-37.5 0-64.433 8.897-80.803 26.691-16.368 17.798-24.551 44.014-24.551 78.658v48.82h-48.542v81.086h48.539v235.26h97.362v-235.26h64.805l8.566-81.086h-73.37z"/>
</symbol><symbol id="icon-linkedin" viewBox="0 0 512 512">
		<rect fill="#fff" y="160" width="114.5" height="352"/>
		<path fill="#fff" d="m426.37 164.13c-1.216-0.384-2.368-0.8-3.648-1.152-1.536-0.352-3.072-0.64-4.64-0.896-6.08-1.216-12.736-2.08-20.544-2.08-66.752 0-109.09 48.544-123.04 67.296v-67.296h-114.5v352h114.5v-192s86.528-120.51 123.04-32v224h114.46v-237.54c0-53.184-36.448-97.504-85.632-110.34z"/>
		<circle fill="#fff" cx="56" cy="56" r="56"/>
</symbol><symbol id="icon-twitter" viewBox="0 0 512 512">
		<path fill="#fff" d="m512 97.248c-19.04 8.352-39.328 13.888-60.48 16.576 21.76-12.992 38.368-33.408 46.176-58.016-20.288 12.096-42.688 20.64-66.56 25.408-19.264-20.512-46.72-33.216-76.672-33.216-58.112 0-104.9 47.168-104.9 104.99 0 8.32 0.704 16.32 2.432 23.936-87.264-4.256-164.48-46.08-216.35-109.79-9.056 15.712-14.368 33.696-14.368 53.056 0 36.352 18.72 68.576 46.624 87.232-16.864-0.32-33.408-5.216-47.424-12.928v1.152c0 51.008 36.384 93.376 84.096 103.14-8.544 2.336-17.856 3.456-27.52 3.456-6.72 0-13.504-0.384-19.872-1.792 13.6 41.568 52.192 72.128 98.08 73.12-35.712 27.936-81.056 44.768-130.14 44.768-8.608 0-16.864-0.384-25.12-1.44 46.496 29.984 101.6 47.104 161.02 47.104 193.15 0 298.75-160 298.75-298.69 0-4.64-0.16-9.12-0.384-13.568 20.832-14.784 38.336-33.248 52.608-54.496z"/>
</symbol></svg>